<svg xmlns="http://www.w3.org/2000/svg" width="119.073" height="123.034" viewBox="0 0 119.073 123.034">
  <g id="eid-mubarak" transform="translate(-1.961 -0.987)">
    <path id="Path_2" data-name="Path 2" d="M34.916,39.01l9.1-9.1L58.894,44.782l-9.1,9.1ZM70.793,56.681l-9.1-9.1-9.1,9.1,9.1,9.1Zm-21,2.8L34.916,74.353l9.1,9.1L58.894,68.581Zm23.8,0-9.1,9.1L79.361,83.456l9.1-9.1Zm21-14.359-3.332-3.312L76.386,56.681,91.261,71.556l3.332-3.312a16.382,16.382,0,0,0,0-23.125ZM61.69,71.378,46.815,86.252l3.312,3.332a16.382,16.382,0,0,0,23.125,0l3.312-3.332Zm-14.7-14.7L32.119,41.807l-3.332,3.312a16.382,16.382,0,0,0,0,23.125l3.332,3.312Zm14.7-14.7L76.565,27.11l-3.312-3.332a16.382,16.382,0,0,0-23.125,0L46.815,27.11ZM79.361,29.907,64.487,44.782l9.1,9.1L88.465,39.01ZM33.091,78.141,24.345,91.29a1.983,1.983,0,0,0,1.249,3.074l8.627,1.725,1.686,8.588a1.983,1.983,0,0,0,3.352,1.011L50.167,94.761c-2.737-1.9-2.7-2.38-17.076-16.62Zm57.2,0C75.91,92.361,75.95,92.857,73.173,94.761l10.908,10.928a1.983,1.983,0,0,0,3.391-1.011L89.2,96.05l8.588-1.686a1.983,1.983,0,0,0,1.249-3.034Z" transform="translate(21.664 17.713)" fill="#c4a2fc"/>
    <path id="Path_3" data-name="Path 3" d="M101.2,33.737a1.983,1.983,0,0,0-1.983-1.983c-5.335,0-10.631-.278-15.866-.793V29.77A28.738,28.738,0,0,0,29.269,16.185,131.136,131.136,0,0,1,5.251,1.429,1.992,1.992,0,1,0,2.792,4.563,139.526,139.526,0,0,0,27.583,19.874a29.373,29.373,0,0,0-1.329,4.938A25.089,25.089,0,0,0,14.93,28.263a25.783,25.783,0,0,0-.992,44.148V85.918a5.95,5.95,0,0,0,3.292,5.335L33.1,99.186a5.95,5.95,0,0,0,5.315,0l15.866-7.933a5.95,5.95,0,0,0,3.292-5.434V76.378H78.4A22.848,22.848,0,0,0,92.537,35.6c2.221,0,4.443.119,6.684.119A1.983,1.983,0,0,0,101.2,33.737ZM54.6,4.979A24.831,24.831,0,0,1,79.387,29.77v.793A161.521,161.521,0,0,1,32.859,17.851,24.752,24.752,0,0,1,54.6,4.979ZM25.838,80.345v-23.8H45.671v23.8Zm-7.933,0v-23.8h3.967v23.8Zm31.733-23.8H53.6v23.8H49.638ZM53.6,52.578H17.9V51.071A1.983,1.983,0,0,1,19,49.286l16.759-8.37,16.759,8.37A1.983,1.983,0,0,1,53.6,51.071ZM6,50.6A21.8,21.8,0,0,1,27.821,28.779h.159a1.983,1.983,0,0,0,1.983-1.765,24.831,24.831,0,0,1,1.269-5.454c.833.377,1.686.773,2.539,1.13V37.466L17.23,45.736a5.95,5.95,0,0,0-3.292,5.335v16.3A21.816,21.816,0,0,1,6,50.6ZM52.513,87.6,36.647,95.537a1.983,1.983,0,0,1-1.785,0L19,87.6A1.983,1.983,0,0,1,17.9,85.819V84.311H53.6v1.507A1.983,1.983,0,0,1,52.513,87.6ZM80.895,34.729a18.921,18.921,0,0,1-2.5,37.683H57.571V51.071a5.95,5.95,0,0,0-3.292-5.335l-16.541-8.27V24.316A164.258,164.258,0,0,0,80.855,34.729Z" transform="translate(0)" fill="#151a6a"/>
  </g>
</svg>
